<svg xmlns="http://www.w3.org/2000/svg" viewBox="0 0 200 200">
  <circle cx="100" cy="100" r="100" fill="#FF9933"/>
  <path d="M100 140 Q90 140 90 150 Q90 160 100 160 Q110 160 110 150 Q110 140 100 140 Z" fill="#138808"/>
  <ellipse cx="100" cy="145" rx="45" ry="25" fill="#138808"/>
  <g fill="white" stroke="black" stroke-width="2">
    <path d="M100 60 Q85 65 80 75 Q75 85 75 95 Q75 105 80 110 Q82 112 85 110 Q88 108 90 105 Q92 102 95 100 L100 60 Z"/>
    <path d="M100 60 Q115 65 120 75 Q125 85 125 95 Q125 105 120 110 Q118 112 115 110 Q112 108 110 105 Q108 102 105 100 L100 60 Z"/>
    <path d="M100 60 Q95 65 92 72 Q90 78 90 85 Q90 92 92 97 Q94 99 96 97 Q98 95 99 92 Q100 88 100 85 L100 60 Z"/>
    <path d="M100 60 Q105 65 108 72 Q110 78 110 85 Q110 92 108 97 Q106 99 104 97 Q102 95 101 92 Q100 88 100 85 L100 60 Z"/>
    <path d="M85 75 Q80 78 78 83 Q76 88 76 93 Q76 98 78 102 Q80 104 82 102 Q84 100 85 97 Q86 93 86 90 L85 75 Z"/>
    <path d="M115 75 Q120 78 122 83 Q124 88 124 93 Q124 98 122 102 Q120 104 118 102 Q116 100 115 97 Q114 93 114 90 L115 75 Z"/>
  </g>
</svg>
